#define snow05_width 8
#define snow05_height 8
static char snow05_bits[] = {
   0x18, 0x18, 0x3c, 0x3c, 0x7e, 0x7e, 0x7e, 0x3c};
