#define welle_width 29
#define welle_height 7
static char welle_bits[] = {
	0x00, 0xf0, 0x01, 0x00,
	0x00, 0xfe, 0x0f, 0x00,
	0x00, 0xff, 0x1f, 0x00,
	0xc0, 0xff, 0x7f, 0x00,
	0xe0, 0xff, 0xff, 0x00,
	0xf8, 0xff, 0xff, 0x03,
	0xff, 0xff, 0xff, 0xff };
